<?xml version="1.0" encoding="UTF-8" standalone="no"?>
<!DOCTYPE svg PUBLIC "-//W3C//DTD SVG 1.1//EN"
 "http://www.w3.org/Graphics/SVG/1.1/DTD/svg11.dtd">
<!-- Generated by graphviz version 10.0.1 (20240210.2158)
 -->
<!-- Title: case1_tmp_split Pages: 1 -->
<svg width="4223pt" height="1213pt"
 viewBox="0.00 0.00 4222.92 1213.18" xmlns="http://www.w3.org/2000/svg" xmlns:xlink="http://www.w3.org/1999/xlink">
<g id="graph0" class="graph" transform="scale(1 1) rotate(0) translate(4 1209.18)">
<title>case1_tmp_split</title>
<polygon fill="white" stroke="none" points="-4,4 -4,-1209.18 4218.92,-1209.18 4218.92,4 -4,4"/>
<!-- 0 -->
<g id="node1" class="node">
<title>0</title>
<polygon fill="none" stroke="black" points="72.25,-690.55 0,-690.55 0,-618.3 72.25,-618.3 72.25,-690.55"/>
<text text-anchor="middle" x="36.12" y="-649" font-family="Times New Roman,serif" font-size="14.00">4452httpd</text>
</g>
<!-- 1 -->
<g id="node2" class="node">
<title>1</title>
<polygon fill="none" stroke="black" points="257.75,-838.3 190,-838.3 190,-770.55 257.75,-770.55 257.75,-838.3"/>
<text text-anchor="middle" x="223.88" y="-799" font-family="Times New Roman,serif" font-size="14.00">2124cmd</text>
</g>
<!-- 0&#45;&gt;1 -->
<g id="edge1" class="edge">
<title>0&#45;&gt;1</title>
<path fill="none" stroke="Red" d="M72.5,-682.99C103.29,-707.86 147.98,-743.94 180.64,-770.32"/>
<polygon fill="Red" stroke="Red" points="178.35,-772.97 188.33,-776.53 182.75,-767.52 178.35,-772.97"/>
<text text-anchor="middle" x="131.12" y="-761.88" font-family="Times New Roman,serif" font-size="14.00">0 ProcessStart</text>
</g>
<!-- 5 -->
<g id="node6" class="node">
<title>5</title>
<polygon fill="none" stroke="black" points="257.75,-637.3 190,-637.3 190,-569.55 257.75,-569.55 257.75,-637.3"/>
<text text-anchor="middle" x="223.88" y="-598" font-family="Times New Roman,serif" font-size="14.00">1996cmd</text>
</g>
<!-- 0&#45;&gt;5 -->
<g id="edge5" class="edge">
<title>0&#45;&gt;5</title>
<path fill="none" stroke="Red" d="M72.5,-644.71C102.63,-636.44 146.07,-624.51 178.53,-615.6"/>
<polygon fill="Red" stroke="Red" points="179.33,-619.01 188.05,-612.99 177.48,-612.26 179.33,-619.01"/>
<text text-anchor="middle" x="131.12" y="-640.88" font-family="Times New Roman,serif" font-size="14.00">4 ProcessStart</text>
</g>
<!-- 2 -->
<g id="node3" class="node">
<title>2</title>
<polygon fill="none" stroke="black" points="463.12,-993.68 376.62,-993.68 376.62,-907.18 463.12,-907.18 463.12,-993.68"/>
<text text-anchor="middle" x="419.88" y="-945" font-family="Times New Roman,serif" font-size="14.00">3016whoami</text>
</g>
<!-- 1&#45;&gt;2 -->
<g id="edge2" class="edge">
<title>1&#45;&gt;2</title>
<path fill="none" stroke="Red" d="M255.52,-838.69C261.95,-845.19 268.87,-851.74 275.75,-857.43 304.14,-880.91 338.72,-903.52 366.77,-920.57"/>
<polygon fill="Red" stroke="Red" points="364.73,-923.42 375.11,-925.58 368.34,-917.42 364.73,-923.42"/>
<text text-anchor="middle" x="316.62" y="-914.88" font-family="Times New Roman,serif" font-size="14.00">1 ProcessStart</text>
</g>
<!-- 3 -->
<g id="node4" class="node">
<title>3</title>
<polygon fill="none" stroke="black" points="455.25,-888.8 384.5,-888.8 384.5,-818.05 455.25,-818.05 455.25,-888.8"/>
<text text-anchor="middle" x="419.88" y="-848" font-family="Times New Roman,serif" font-size="14.00">2708ARP</text>
</g>
<!-- 1&#45;&gt;3 -->
<g id="edge3" class="edge">
<title>1&#45;&gt;3</title>
<path fill="none" stroke="Red" d="M258.22,-812.85C290,-820.87 338.08,-833.02 373.36,-841.93"/>
<polygon fill="Red" stroke="Red" points="372.31,-845.27 382.86,-844.33 374.02,-838.49 372.31,-845.27"/>
<text text-anchor="middle" x="316.62" y="-839.88" font-family="Times New Roman,serif" font-size="14.00">2 ProcessStart</text>
</g>
<!-- 4 -->
<g id="node5" class="node">
<title>4</title>
<polygon fill="none" stroke="black" points="464.25,-799.8 375.5,-799.8 375.5,-711.05 464.25,-711.05 464.25,-799.8"/>
<text text-anchor="middle" x="419.88" y="-750" font-family="Times New Roman,serif" font-size="14.00">2848ipconfig</text>
</g>
<!-- 1&#45;&gt;4 -->
<g id="edge4" class="edge">
<title>1&#45;&gt;4</title>
<path fill="none" stroke="Red" d="M258.22,-796C287.36,-788.64 330.2,-777.82 364.32,-769.21"/>
<polygon fill="Red" stroke="Red" points="364.75,-772.71 373.59,-766.86 363.04,-765.92 364.75,-772.71"/>
<text text-anchor="middle" x="316.62" y="-792.88" font-family="Times New Roman,serif" font-size="14.00">3 ProcessStart</text>
</g>
<!-- 6 -->
<g id="node7" class="node">
<title>6</title>
<polygon fill="none" stroke="black" points="460.5,-693.05 379.25,-693.05 379.25,-611.8 460.5,-611.8 460.5,-693.05"/>
<text text-anchor="middle" x="419.88" y="-647" font-family="Times New Roman,serif" font-size="14.00">4328taskkill</text>
</g>
<!-- 5&#45;&gt;6 -->
<g id="edge6" class="edge">
<title>5&#45;&gt;6</title>
<path fill="none" stroke="Red" d="M258.22,-611.85C288.43,-619.48 333.38,-630.83 368.06,-639.59"/>
<polygon fill="Red" stroke="Red" points="366.91,-642.91 377.46,-641.96 368.62,-636.12 366.91,-642.91"/>
<text text-anchor="middle" x="316.62" y="-638.88" font-family="Times New Roman,serif" font-size="14.00">5 ProcessStart</text>
</g>
<!-- 7 -->
<g id="node8" class="node">
<title>7</title>
<polygon fill="none" stroke="black" points="460.12,-593.68 379.62,-593.68 379.62,-513.18 460.12,-513.18 460.12,-593.68"/>
<text text-anchor="middle" x="419.88" y="-548" font-family="Times New Roman,serif" font-size="14.00">3268certutil</text>
</g>
<!-- 5&#45;&gt;7 -->
<g id="edge7" class="edge">
<title>5&#45;&gt;7</title>
<path fill="none" stroke="Red" d="M258.22,-594.83C288.53,-587.02 333.67,-575.39 368.4,-566.44"/>
<polygon fill="Red" stroke="Red" points="369,-569.9 377.81,-564.01 367.25,-563.12 369,-569.9"/>
<text text-anchor="middle" x="316.62" y="-591.88" font-family="Times New Roman,serif" font-size="14.00">6 ProcessStart</text>
</g>
<!-- 11 -->
<g id="node11" class="node">
<title>11</title>
<polygon fill="none" stroke="black" points="1288.34,-530.3 1220.59,-530.3 1220.59,-462.55 1288.34,-462.55 1288.34,-530.3"/>
<text text-anchor="middle" x="1254.46" y="-491" font-family="Times New Roman,serif" font-size="14.00">4360cmd</text>
</g>
<!-- 5&#45;&gt;11 -->
<g id="edge11" class="edge">
<title>5&#45;&gt;11</title>
<path fill="none" stroke="Blue" d="M257.97,-573.92C286.76,-550.26 330.79,-518.73 375.5,-504.43 681.31,-406.59 1078.28,-464.34 1209.35,-487.88"/>
<polygon fill="Blue" stroke="Blue" points="1208.52,-491.28 1218.99,-489.64 1209.78,-484.4 1208.52,-491.28"/>
<text text-anchor="middle" x="526.5" y="-477.88" font-family="Times New Roman,serif" font-size="14.00">10 ProcessStart</text>
</g>
<!-- 8 -->
<g id="node9" class="node">
<title>8</title>
<polygon fill="none" stroke="black" points="1102.84,-552.43 693.94,-552.43 588.75,-516.43 997.65,-516.43 1102.84,-552.43"/>
<text text-anchor="middle" x="845.79" y="-529" font-family="Times New Roman,serif" font-size="14.00">192.168.0.95&#45;50,750&#45;&gt;124.223.85.207&#45;8,079</text>
</g>
<!-- 7&#45;&gt;8 -->
<g id="edge8" class="edge">
<title>7&#45;&gt;8</title>
<path fill="none" stroke="Blue" d="M460.38,-551.66C504.85,-549.66 580.4,-546.28 652.81,-543.03"/>
<polygon fill="Blue" stroke="Blue" points="652.59,-546.54 662.42,-542.6 652.28,-539.55 652.59,-546.54"/>
<text text-anchor="middle" x="526.5" y="-553.88" font-family="Times New Roman,serif" font-size="14.00">7 TcpIpSend</text>
</g>
<!-- 10 -->
<g id="node10" class="node">
<title>10</title>
<ellipse fill="none" stroke="black" cx="845.79" cy="-592.43" rx="105.95" ry="18"/>
<text text-anchor="middle" x="845.79" y="-587" font-family="Times New Roman,serif" font-size="14.00">C:/Users/Public/agent.exe</text>
</g>
<!-- 7&#45;&gt;10 -->
<g id="edge10" class="edge">
<title>7&#45;&gt;10</title>
<path fill="none" stroke="Blue" d="M460.51,-566.48C467.68,-568.43 475.14,-570.19 482.25,-571.43 563.62,-585.53 656.64,-590.69 728.09,-592.38"/>
<polygon fill="Blue" stroke="Blue" points="727.78,-595.87 737.85,-592.59 727.93,-588.88 727.78,-595.87"/>
<text text-anchor="middle" x="526.5" y="-583.88" font-family="Times New Roman,serif" font-size="14.00">9 FileIOWrite</text>
</g>
<!-- 8&#45;&gt;7 -->
<g id="edge9" class="edge">
<title>8&#45;&gt;7</title>
<path fill="none" stroke="Blue" d="M669.16,-515.94C609.35,-513.66 542.42,-515.56 482.25,-527.68 478.63,-528.41 474.95,-529.36 471.29,-530.46"/>
<polygon fill="Blue" stroke="Blue" points="470.19,-527.13 461.86,-533.67 472.45,-533.76 470.19,-527.13"/>
<text text-anchor="middle" x="526.5" y="-530.88" font-family="Times New Roman,serif" font-size="14.00">8 TcpIpRecv</text>
</g>
<!-- 10&#45;&gt;11 -->
<g id="edge12" class="edge">
<title>10&#45;&gt;11</title>
<path fill="none" stroke="Blue" d="M947.16,-586.97C994.93,-582.68 1052.48,-575.03 1102.84,-561.43 1140.47,-551.26 1180.91,-533.38 1210.41,-518.95"/>
<polygon fill="Blue" stroke="Blue" points="1211.61,-522.26 1219.01,-514.68 1208.49,-515.99 1211.61,-522.26"/>
<text text-anchor="middle" x="1161.71" y="-557.88" font-family="Times New Roman,serif" font-size="14.00">11 FileIORead</text>
</g>
<!-- 13 -->
<g id="node12" class="node">
<title>13</title>
<polygon fill="none" stroke="black" points="1485.09,-532.55 1412.84,-532.55 1412.84,-460.3 1485.09,-460.3 1485.09,-532.55"/>
<text text-anchor="middle" x="1448.96" y="-491" font-family="Times New Roman,serif" font-size="14.00">4128agent</text>
</g>
<!-- 11&#45;&gt;13 -->
<g id="edge13" class="edge">
<title>11&#45;&gt;13</title>
<path fill="none" stroke="Blue" d="M1288.55,-496.43C1319.56,-496.43 1366.21,-496.43 1401.05,-496.43"/>
<polygon fill="Blue" stroke="Blue" points="1400.85,-499.93 1410.85,-496.43 1400.85,-492.93 1400.85,-499.93"/>
<text text-anchor="middle" x="1350.59" y="-498.88" font-family="Times New Roman,serif" font-size="14.00">12 ProcessStart</text>
</g>
<!-- 14 -->
<g id="node13" class="node">
<title>14</title>
<polygon fill="none" stroke="black" points="2123.67,-1177.43 1714.78,-1177.43 1609.59,-1141.43 2018.49,-1141.43 2123.67,-1177.43"/>
<text text-anchor="middle" x="1866.63" y="-1154" font-family="Times New Roman,serif" font-size="14.00">192.168.0.95&#45;50,755&#45;&gt;124.223.85.207&#45;8,443</text>
</g>
<!-- 13&#45;&gt;14 -->
<g id="edge14" class="edge">
<title>13&#45;&gt;14</title>
<path fill="none" stroke="Blue" d="M1450.53,-532.65C1452.83,-657.79 1463.37,-1066.54 1503.09,-1108.43 1510.11,-1115.83 1601.26,-1128.63 1690.41,-1139.56"/>
<polygon fill="Blue" stroke="Blue" points="1689.97,-1143.03 1700.32,-1140.77 1690.82,-1136.08 1689.97,-1143.03"/>
<text text-anchor="middle" x="1547.34" y="-1127.88" font-family="Times New Roman,serif" font-size="14.00">13 TcpIpSend</text>
</g>
<!-- 16 -->
<g id="node14" class="node">
<title>16</title>
<ellipse fill="none" stroke="black" cx="2295.53" cy="-986.43" rx="153.86" ry="18"/>
<text text-anchor="middle" x="2295.53" y="-981" font-family="Times New Roman,serif" font-size="14.00">C:/Users/Public/administrator_pass.txt</text>
</g>
<!-- 13&#45;&gt;16 -->
<g id="edge16" class="edge">
<title>13&#45;&gt;16</title>
<path fill="none" stroke="Black" d="M1457.3,-532.95C1472.76,-599.71 1515.31,-740.95 1609.59,-810.43 1806.81,-955.76 1903.44,-897.3 2141.67,-954.43 2161.7,-959.23 2183.29,-963.99 2203.76,-968.33"/>
<polygon fill="Black" stroke="Black" points="2203.01,-971.75 2213.52,-970.38 2204.45,-964.9 2203.01,-971.75"/>
<text text-anchor="middle" x="1547.34" y="-794.88" font-family="Times New Roman,serif" font-size="14.00">15 FileIOWrite</text>
</g>
<!-- 17 -->
<g id="node15" class="node">
<title>17</title>
<ellipse fill="none" stroke="black" cx="2589.31" cy="-1092.43" rx="121.92" ry="18"/>
<text text-anchor="middle" x="2589.31" y="-1087" font-family="Times New Roman,serif" font-size="14.00">C:/Users/Public/WinBrute.exe</text>
</g>
<!-- 13&#45;&gt;17 -->
<g id="edge17" class="edge">
<title>13&#45;&gt;17</title>
<path fill="none" stroke="Black" d="M1451,-533.03C1454.67,-650.12 1468.68,-1010.1 1503.09,-1048.43 1565.71,-1118.19 2185.93,-1106.12 2459.64,-1097.25"/>
<polygon fill="Black" stroke="Black" points="2459.43,-1100.76 2469.31,-1096.94 2459.2,-1093.77 2459.43,-1100.76"/>
<text text-anchor="middle" x="1866.63" y="-1105.88" font-family="Times New Roman,serif" font-size="14.00">16 FileIOWrite</text>
</g>
<!-- 18 -->
<g id="node16" class="node">
<title>18</title>
<polygon fill="none" stroke="black" points="2903.73,-1104.3 2835.98,-1104.3 2835.98,-1036.55 2903.73,-1036.55 2903.73,-1104.3"/>
<text text-anchor="middle" x="2869.86" y="-1065" font-family="Times New Roman,serif" font-size="14.00">4320cmd</text>
</g>
<!-- 13&#45;&gt;18 -->
<g id="edge18" class="edge">
<title>13&#45;&gt;18</title>
<path fill="none" stroke="Black" d="M1452.73,-532.95C1458.77,-605.73 1474.93,-765.82 1503.09,-812.43 1533.84,-863.32 1555.11,-869.57 1609.59,-893.43 1822.14,-986.49 1922.16,-869.4 2123.67,-984.43 2134.35,-990.52 2130.68,-999.93 2141.67,-1005.43 2202.96,-1036.09 2381.11,-1019.79 2449.39,-1025.68 2586.46,-1037.49 2748.24,-1056.06 2824.65,-1065.11"/>
<polygon fill="Black" stroke="Black" points="2823.88,-1068.55 2834.23,-1066.25 2824.71,-1061.6 2823.88,-1068.55"/>
<text text-anchor="middle" x="2295.53" y="-1027.88" font-family="Times New Roman,serif" font-size="14.00">17 ProcessStart</text>
</g>
<!-- 22 -->
<g id="node18" class="node">
<title>22</title>
<polygon fill="none" stroke="black" points="1900.51,-1061.3 1832.76,-1061.3 1832.76,-993.55 1900.51,-993.55 1900.51,-1061.3"/>
<text text-anchor="middle" x="1866.63" y="-1022" font-family="Times New Roman,serif" font-size="14.00">4900cmd</text>
</g>
<!-- 13&#45;&gt;22 -->
<g id="edge22" class="edge">
<title>13&#45;&gt;22</title>
<path fill="none" stroke="Black" d="M1451.42,-533C1456.06,-640.12 1471.97,-947.61 1503.09,-979.43 1586.91,-1065.12 1744.29,-1050.52 1821.14,-1036.95"/>
<polygon fill="Black" stroke="Black" points="1821.63,-1040.42 1830.83,-1035.16 1820.36,-1033.54 1821.63,-1040.42"/>
<text text-anchor="middle" x="1547.34" y="-1030.88" font-family="Times New Roman,serif" font-size="14.00">21 ProcessStart</text>
</g>
<!-- 24 -->
<g id="node19" class="node">
<title>24</title>
<polygon fill="none" stroke="black" points="1918.13,-800.93 1815.13,-800.93 1815.13,-697.93 1918.13,-697.93 1918.13,-800.93"/>
<text text-anchor="middle" x="1866.63" y="-744" font-family="Times New Roman,serif" font-size="14.00">3900powershell</text>
</g>
<!-- 13&#45;&gt;24 -->
<g id="edge24" class="edge">
<title>13&#45;&gt;24</title>
<path fill="none" stroke="Orange" d="M1485.34,-531.09C1491.2,-536.63 1497.26,-542.24 1503.09,-547.43 1548.93,-588.27 1557.39,-603.09 1609.59,-635.43 1672.47,-674.39 1750.96,-707.28 1804.35,-727.57"/>
<polygon fill="Orange" stroke="Orange" points="1803,-730.8 1813.6,-731.05 1805.47,-724.25 1803,-730.8"/>
<text text-anchor="middle" x="1547.34" y="-624.88" font-family="Times New Roman,serif" font-size="14.00">23 ProcessStart</text>
</g>
<!-- 30 -->
<g id="node25" class="node">
<title>30</title>
<polygon fill="none" stroke="black" points="1914.76,-626.55 1818.51,-626.55 1818.51,-530.3 1914.76,-530.3 1914.76,-626.55"/>
<text text-anchor="middle" x="1866.63" y="-573" font-family="Times New Roman,serif" font-size="14.00">836powershell</text>
</g>
<!-- 13&#45;&gt;30 -->
<g id="edge30" class="edge">
<title>13&#45;&gt;30</title>
<path fill="none" stroke="Orange" d="M1485.31,-506.12C1491.23,-507.64 1497.32,-509.13 1503.09,-510.43 1609.68,-534.43 1735.23,-556.65 1807.12,-568.79"/>
<polygon fill="Orange" stroke="Orange" points="1806.25,-572.19 1816.7,-570.4 1807.41,-565.29 1806.25,-572.19"/>
<text text-anchor="middle" x="1547.34" y="-529.88" font-family="Times New Roman,serif" font-size="14.00">29 ProcessStart</text>
</g>
<!-- 33 -->
<g id="node28" class="node">
<title>33</title>
<ellipse fill="none" stroke="black" cx="2589.31" cy="-410.43" rx="115.43" ry="18"/>
<text text-anchor="middle" x="2589.31" y="-405" font-family="Times New Roman,serif" font-size="14.00">C:/Users/Public/nbtscan.exe</text>
</g>
<!-- 13&#45;&gt;33 -->
<g id="edge33" class="edge">
<title>13&#45;&gt;33</title>
<path fill="none" stroke="Green" d="M1485.17,-496.85C1614.51,-497.92 2075.27,-497.25 2449.39,-440.43 2461.82,-438.54 2486.37,-433.4 2511.42,-427.9"/>
<polygon fill="Green" stroke="Green" points="2512.05,-431.34 2521.06,-425.76 2510.54,-424.51 2512.05,-431.34"/>
<text text-anchor="middle" x="1866.63" y="-499.88" font-family="Times New Roman,serif" font-size="14.00">32 FileIOWrite</text>
</g>
<!-- 34 -->
<g id="node29" class="node">
<title>34</title>
<polygon fill="none" stroke="black" points="2903.73,-429.3 2835.98,-429.3 2835.98,-361.55 2903.73,-361.55 2903.73,-429.3"/>
<text text-anchor="middle" x="2869.86" y="-390" font-family="Times New Roman,serif" font-size="14.00">4772cmd</text>
</g>
<!-- 13&#45;&gt;34 -->
<g id="edge34" class="edge">
<title>13&#45;&gt;34</title>
<path fill="none" stroke="Green" d="M1482.21,-459.85C1488.79,-453.34 1495.9,-446.89 1503.09,-441.43 1545.97,-408.78 1557.36,-396.73 1609.59,-383.43 1846.83,-323.01 2466.6,-374.13 2711.23,-383.43 2749.58,-384.88 2793.06,-388.33 2824.63,-391.16"/>
<polygon fill="Green" stroke="Green" points="2823.9,-394.6 2834.18,-392.03 2824.54,-387.63 2823.9,-394.6"/>
<text text-anchor="middle" x="2295.53" y="-372.88" font-family="Times New Roman,serif" font-size="14.00">33 ProcessStart</text>
</g>
<!-- 37 -->
<g id="node31" class="node">
<title>37</title>
<polygon fill="none" stroke="black" points="1900.51,-460.3 1832.76,-460.3 1832.76,-392.55 1900.51,-392.55 1900.51,-460.3"/>
<text text-anchor="middle" x="1866.63" y="-421" font-family="Times New Roman,serif" font-size="14.00">4596cmd</text>
</g>
<!-- 13&#45;&gt;37 -->
<g id="edge37" class="edge">
<title>13&#45;&gt;37</title>
<path fill="none" stroke="Green" d="M1485.37,-474.07C1491.13,-471.19 1497.15,-468.58 1503.09,-466.68 1613.53,-431.23 1751.51,-425.9 1821.1,-425.74"/>
<polygon fill="Green" stroke="Green" points="1820.95,-429.24 1830.96,-425.76 1820.96,-422.24 1820.95,-429.24"/>
<text text-anchor="middle" x="1547.34" y="-469.88" font-family="Times New Roman,serif" font-size="14.00">36 ProcessStart</text>
</g>
<!-- 39 -->
<g id="node32" class="node">
<title>39</title>
<ellipse fill="none" stroke="black" cx="2589.31" cy="-187.43" rx="116.93" ry="18"/>
<text text-anchor="middle" x="2589.31" y="-182" font-family="Times New Roman,serif" font-size="14.00">C:/Users/Public/PAExec.exe</text>
</g>
<!-- 13&#45;&gt;39 -->
<g id="edge39" class="edge">
<title>13&#45;&gt;39</title>
<path fill="none" stroke="Green" d="M1451.44,-459.86C1455.32,-378.75 1468.06,-186.72 1503.09,-133.43 1533.64,-86.94 1556.07,-82.86 1609.59,-67.68 1952.59,29.68 2385.34,-110.66 2534.73,-166.35"/>
<polygon fill="Green" stroke="Green" points="2533.4,-169.59 2544,-169.84 2535.87,-163.04 2533.4,-169.59"/>
<text text-anchor="middle" x="1866.63" y="-70.88" font-family="Times New Roman,serif" font-size="14.00">38 FileIOWrite</text>
</g>
<!-- 13&#45;&gt;39 -->
<g id="edge40" class="edge">
<title>13&#45;&gt;39</title>
<path fill="none" stroke="Green" d="M1449.54,-459.93C1451.18,-417.75 1460.78,-349.4 1503.09,-312.43 1539.11,-280.94 1562.05,-302.09 1609.59,-296.68 1981.84,-254.26 2080.5,-288.93 2449.39,-223.43 2473.53,-219.14 2499.63,-212.83 2522.63,-206.68"/>
<polygon fill="Green" stroke="Green" points="2523.45,-210.09 2532.18,-204.09 2521.62,-203.33 2523.45,-210.09"/>
<text text-anchor="middle" x="1866.63" y="-299.88" font-family="Times New Roman,serif" font-size="14.00">39 FileIOWrite</text>
</g>
<!-- 41 -->
<g id="node33" class="node">
<title>41</title>
<polygon fill="none" stroke="black" points="2903.73,-328.3 2835.98,-328.3 2835.98,-260.55 2903.73,-260.55 2903.73,-328.3"/>
<text text-anchor="middle" x="2869.86" y="-289" font-family="Times New Roman,serif" font-size="14.00">2284cmd</text>
</g>
<!-- 13&#45;&gt;41 -->
<g id="edge41" class="edge">
<title>13&#45;&gt;41</title>
<path fill="none" stroke="Green" d="M1459.3,-459.82C1467.23,-435.62 1480.94,-404.89 1503.09,-385.43 1540.51,-352.54 1560.58,-359.39 1609.59,-350.43 1730.88,-328.23 2614.61,-301.71 2824.31,-295.69"/>
<polygon fill="Green" stroke="Green" points="2824.34,-299.19 2834.24,-295.4 2824.14,-292.19 2824.34,-299.19"/>
<text text-anchor="middle" x="2295.53" y="-320.88" font-family="Times New Roman,serif" font-size="14.00">40 ProcessStart</text>
</g>
<!-- 48 -->
<g id="node38" class="node">
<title>48</title>
<polygon fill="none" stroke="black" points="1900.51,-160.3 1832.76,-160.3 1832.76,-92.55 1900.51,-92.55 1900.51,-160.3"/>
<text text-anchor="middle" x="1866.63" y="-121" font-family="Times New Roman,serif" font-size="14.00">3720cmd</text>
</g>
<!-- 13&#45;&gt;48 -->
<g id="edge48" class="edge">
<title>13&#45;&gt;48</title>
<path fill="none" stroke="Green" d="M1451.12,-459.98C1454.24,-386.73 1465.34,-225.4 1503.09,-187.68 1588.23,-102.59 1744.65,-109.62 1821.14,-119.23"/>
<polygon fill="Green" stroke="Green" points="1820.4,-122.66 1830.77,-120.51 1821.32,-115.72 1820.4,-122.66"/>
<text text-anchor="middle" x="1547.34" y="-190.88" font-family="Times New Roman,serif" font-size="14.00">47 ProcessStart</text>
</g>
<!-- 50 -->
<g id="node39" class="node">
<title>50</title>
<polygon fill="none" stroke="black" points="2903.73,-138.3 2835.98,-138.3 2835.98,-70.55 2903.73,-70.55 2903.73,-138.3"/>
<text text-anchor="middle" x="2869.86" y="-99" font-family="Times New Roman,serif" font-size="14.00">3988cmd</text>
</g>
<!-- 13&#45;&gt;50 -->
<g id="edge50" class="edge">
<title>13&#45;&gt;50</title>
<path fill="none" stroke="Green" d="M1449.77,-459.81C1450.02,-367.7 1455.37,-129.43 1503.09,-69.43 1534.46,-29.97 1559.95,-39.23 1609.59,-30.43 2079.71,52.95 2662.41,-59.36 2824.97,-94.52"/>
<polygon fill="Green" stroke="Green" points="2823.94,-97.88 2834.46,-96.59 2825.43,-91.04 2823.94,-97.88"/>
<text text-anchor="middle" x="2295.53" y="-33.88" font-family="Times New Roman,serif" font-size="14.00">49 ProcessStart</text>
</g>
<!-- 55 -->
<g id="node42" class="node">
<title>55</title>
<polygon fill="none" stroke="black" points="1900.51,-246.3 1832.76,-246.3 1832.76,-178.55 1900.51,-178.55 1900.51,-246.3"/>
<text text-anchor="middle" x="1866.63" y="-207" font-family="Times New Roman,serif" font-size="14.00">4652cmd</text>
</g>
<!-- 13&#45;&gt;55 -->
<g id="edge55" class="edge">
<title>13&#45;&gt;55</title>
<path fill="none" stroke="Green" d="M1452.77,-460.22C1458.29,-399.24 1472.76,-280 1503.09,-252.68 1591.58,-172.94 1745.75,-188.65 1821.32,-202.59"/>
<polygon fill="Green" stroke="Green" points="1820.34,-205.97 1830.83,-204.42 1821.67,-199.09 1820.34,-205.97"/>
<text text-anchor="middle" x="1547.34" y="-255.88" font-family="Times New Roman,serif" font-size="14.00">54 ProcessStart</text>
</g>
<!-- 14&#45;&gt;13 -->
<g id="edge15" class="edge">
<title>14&#45;&gt;13</title>
<path fill="none" stroke="Blue" d="M1807.72,-1177.92C1727.7,-1199.45 1584.06,-1222.98 1503.09,-1145.43 1459.86,-1104.02 1451.8,-686.9 1450.3,-544.09"/>
<polygon fill="Blue" stroke="Blue" points="1453.8,-544.19 1450.2,-534.22 1446.8,-544.26 1453.8,-544.19"/>
<text text-anchor="middle" x="1547.34" y="-1191.88" font-family="Times New Roman,serif" font-size="14.00">14 TcpIpRecv</text>
</g>
<!-- 20 -->
<g id="node17" class="node">
<title>20</title>
<polygon fill="none" stroke="black" points="3131.48,-1079.55 3035.23,-1079.55 3035.23,-983.3 3131.48,-983.3 3131.48,-1079.55"/>
<text text-anchor="middle" x="3083.36" y="-1026" font-family="Times New Roman,serif" font-size="14.00">3524WinBrute</text>
</g>
<!-- 16&#45;&gt;20 -->
<g id="edge21" class="edge">
<title>16&#45;&gt;20</title>
<path fill="none" stroke="Black" d="M2434.76,-994.34C2608.61,-1004.3 2899.36,-1020.95 3023.39,-1028.05"/>
<polygon fill="Black" stroke="Black" points="3023.17,-1031.54 3033.35,-1028.62 3023.57,-1024.55 3023.17,-1031.54"/>
<text text-anchor="middle" x="2770.11" y="-1017.88" font-family="Times New Roman,serif" font-size="14.00">20 FileIORead</text>
</g>
<!-- 17&#45;&gt;18 -->
<g id="edge19" class="edge">
<title>17&#45;&gt;18</title>
<path fill="none" stroke="Black" d="M2698,-1083.92C2741.96,-1080.45 2790.35,-1076.63 2824.38,-1073.94"/>
<polygon fill="Black" stroke="Black" points="2824.58,-1077.43 2834.27,-1073.16 2824.03,-1070.46 2824.58,-1077.43"/>
<text text-anchor="middle" x="2770.11" y="-1083.88" font-family="Times New Roman,serif" font-size="14.00">18 FileIORead</text>
</g>
<!-- 18&#45;&gt;20 -->
<g id="edge20" class="edge">
<title>18&#45;&gt;20</title>
<path fill="none" stroke="Black" d="M2903.9,-1064.33C2935.94,-1058.42 2985.24,-1049.33 3023.91,-1042.2"/>
<polygon fill="Black" stroke="Black" points="3024.33,-1045.68 3033.53,-1040.43 3023.06,-1038.8 3024.33,-1045.68"/>
<text text-anchor="middle" x="2972.98" y="-1060.88" font-family="Times New Roman,serif" font-size="14.00">19 ProcessStart</text>
</g>
<!-- 22&#45;&gt;17 -->
<g id="edge23" class="edge">
<title>22&#45;&gt;17</title>
<path fill="none" stroke="Black" d="M1900.62,-1029.5C2015.65,-1036.76 2394.94,-1060.96 2449.39,-1067.68 2466.92,-1069.84 2485.6,-1072.75 2503.39,-1075.81"/>
<polygon fill="Black" stroke="Black" points="2502.69,-1079.24 2513.14,-1077.52 2503.9,-1072.34 2502.69,-1079.24"/>
<text text-anchor="middle" x="2295.53" y="-1069.88" font-family="Times New Roman,serif" font-size="14.00">22 FileIOWrite</text>
</g>
<!-- 25 -->
<g id="node20" class="node">
<title>25</title>
<polygon fill="none" stroke="black" points="2616.06,-980.18 2562.56,-980.18 2562.56,-926.68 2616.06,-926.68 2616.06,-980.18"/>
<text text-anchor="middle" x="2589.31" y="-948" font-family="Times New Roman,serif" font-size="14.00">520reg</text>
</g>
<!-- 24&#45;&gt;25 -->
<g id="edge25" class="edge">
<title>24&#45;&gt;25</title>
<path fill="none" stroke="Orange" d="M1918.36,-775.52C1972.41,-802.35 2061.12,-843.61 2141.67,-868.43 2289.84,-914.07 2473.57,-939.71 2551.07,-949.17"/>
<polygon fill="Orange" stroke="Orange" points="2550.29,-952.61 2560.64,-950.32 2551.13,-945.66 2550.29,-952.61"/>
<text text-anchor="middle" x="2295.53" y="-936.88" font-family="Times New Roman,serif" font-size="14.00">24 ProcessStart</text>
</g>
<!-- 26 -->
<g id="node21" class="node">
<title>26</title>
<polygon fill="none" stroke="black" points="2625.43,-908.55 2553.18,-908.55 2553.18,-836.3 2625.43,-836.3 2625.43,-908.55"/>
<text text-anchor="middle" x="2589.31" y="-867" font-family="Times New Roman,serif" font-size="14.00">3276netsh</text>
</g>
<!-- 24&#45;&gt;26 -->
<g id="edge26" class="edge">
<title>24&#45;&gt;26</title>
<path fill="none" stroke="Orange" d="M1918.58,-759.29C1973.55,-769.84 2063.72,-786.89 2141.67,-800.43 2287.34,-825.72 2460.28,-852.74 2541.62,-865.28"/>
<polygon fill="Orange" stroke="Orange" points="2541.03,-868.73 2551.45,-866.79 2542.09,-861.81 2541.03,-868.73"/>
<text text-anchor="middle" x="2295.53" y="-850.88" font-family="Times New Roman,serif" font-size="14.00">25 ProcessStart</text>
</g>
<!-- 27 -->
<g id="node22" class="node">
<title>27</title>
<polygon fill="none" stroke="black" points="2619.43,-818.55 2559.18,-818.55 2559.18,-758.3 2619.43,-758.3 2619.43,-818.55"/>
<text text-anchor="middle" x="2589.31" y="-783" font-family="Times New Roman,serif" font-size="14.00">4256reg</text>
</g>
<!-- 24&#45;&gt;27 -->
<g id="edge27" class="edge">
<title>24&#45;&gt;27</title>
<path fill="none" stroke="Orange" d="M1918.59,-752.18C2054.64,-759.55 2424.36,-779.55 2547.67,-786.23"/>
<polygon fill="Orange" stroke="Orange" points="2547.13,-789.7 2557.31,-786.75 2547.51,-782.71 2547.13,-789.7"/>
<text text-anchor="middle" x="2295.53" y="-782.88" font-family="Times New Roman,serif" font-size="14.00">26 ProcessStart</text>
</g>
<!-- 28 -->
<g id="node23" class="node">
<title>28</title>
<polygon fill="none" stroke="black" points="2619.43,-740.55 2559.18,-740.55 2559.18,-680.3 2619.43,-680.3 2619.43,-740.55"/>
<text text-anchor="middle" x="2589.31" y="-705" font-family="Times New Roman,serif" font-size="14.00">4520reg</text>
</g>
<!-- 24&#45;&gt;28 -->
<g id="edge28" class="edge">
<title>24&#45;&gt;28</title>
<path fill="none" stroke="Orange" d="M1918.59,-746.67C2054.64,-739.31 2424.36,-719.3 2547.67,-712.63"/>
<polygon fill="Orange" stroke="Orange" points="2547.51,-716.14 2557.31,-712.1 2547.13,-709.15 2547.51,-716.14"/>
<text text-anchor="middle" x="2295.53" y="-736.88" font-family="Times New Roman,serif" font-size="14.00">27 ProcessStart</text>
</g>
<!-- 29 -->
<g id="node24" class="node">
<title>29</title>
<polygon fill="none" stroke="black" points="2619.43,-662.55 2559.18,-662.55 2559.18,-602.3 2619.43,-602.3 2619.43,-662.55"/>
<text text-anchor="middle" x="2589.31" y="-627" font-family="Times New Roman,serif" font-size="14.00">3332reg</text>
</g>
<!-- 24&#45;&gt;29 -->
<g id="edge29" class="edge">
<title>24&#45;&gt;29</title>
<path fill="none" stroke="Orange" d="M1918.53,-739.16C1973.47,-728.23 2063.6,-710.75 2141.67,-697.68 2290.72,-672.73 2468.67,-648.34 2547.39,-637.82"/>
<polygon fill="Orange" stroke="Orange" points="2547.76,-641.31 2557.21,-636.52 2546.84,-634.37 2547.76,-641.31"/>
<text text-anchor="middle" x="2295.53" y="-699.88" font-family="Times New Roman,serif" font-size="14.00">28 ProcessStart</text>
</g>
<!-- 31 -->
<g id="node26" class="node">
<title>31</title>
<polygon fill="none" stroke="black" points="2619.43,-584.55 2559.18,-584.55 2559.18,-524.3 2619.43,-524.3 2619.43,-584.55"/>
<text text-anchor="middle" x="2589.31" y="-549" font-family="Times New Roman,serif" font-size="14.00">4608reg</text>
</g>
<!-- 30&#45;&gt;31 -->
<g id="edge31" class="edge">
<title>30&#45;&gt;31</title>
<path fill="none" stroke="Orange" d="M1915.19,-576.84C2048.33,-572.41 2423.09,-559.93 2547.56,-555.78"/>
<polygon fill="Orange" stroke="Orange" points="2547.41,-559.29 2557.29,-555.46 2547.18,-552.29 2547.41,-559.29"/>
<text text-anchor="middle" x="2295.53" y="-571.88" font-family="Times New Roman,serif" font-size="14.00">30 ProcessStart</text>
</g>
<!-- 32 -->
<g id="node27" class="node">
<title>32</title>
<polygon fill="none" stroke="black" points="2619.43,-506.55 2559.18,-506.55 2559.18,-446.3 2619.43,-446.3 2619.43,-506.55"/>
<text text-anchor="middle" x="2589.31" y="-471" font-family="Times New Roman,serif" font-size="14.00">4676reg</text>
</g>
<!-- 30&#45;&gt;32 -->
<g id="edge32" class="edge">
<title>30&#45;&gt;32</title>
<path fill="none" stroke="Orange" d="M1915.09,-571.19C1969.68,-562.98 2062.03,-549.48 2141.67,-539.68 2278.15,-522.88 2313.68,-529.6 2449.39,-507.43 2482.68,-501.99 2519.96,-493.53 2547.52,-486.83"/>
<polygon fill="Orange" stroke="Orange" points="2548.35,-490.23 2557.22,-484.44 2546.68,-483.43 2548.35,-490.23"/>
<text text-anchor="middle" x="2295.53" y="-542.88" font-family="Times New Roman,serif" font-size="14.00">31 ProcessStart</text>
</g>
<!-- 33&#45;&gt;34 -->
<g id="edge35" class="edge">
<title>33&#45;&gt;34</title>
<path fill="none" stroke="Green" d="M2699.2,-404.56C2742.88,-402.21 2790.75,-399.63 2824.47,-397.82"/>
<polygon fill="Green" stroke="Green" points="2824.47,-401.32 2834.26,-397.29 2824.09,-394.33 2824.47,-401.32"/>
<text text-anchor="middle" x="2770.11" y="-405.88" font-family="Times New Roman,serif" font-size="14.00">34 FileIORead</text>
</g>
<!-- 36 -->
<g id="node30" class="node">
<title>36</title>
<polygon fill="none" stroke="black" points="3126.61,-438.68 3040.11,-438.68 3040.11,-352.18 3126.61,-352.18 3126.61,-438.68"/>
<text text-anchor="middle" x="3083.36" y="-390" font-family="Times New Roman,serif" font-size="14.00">4976nbtscan</text>
</g>
<!-- 34&#45;&gt;36 -->
<g id="edge36" class="edge">
<title>34&#45;&gt;36</title>
<path fill="none" stroke="Green" d="M2903.9,-395.43C2937.14,-395.43 2988.95,-395.43 3028.2,-395.43"/>
<polygon fill="Green" stroke="Green" points="3028.17,-398.93 3038.17,-395.43 3028.17,-391.93 3028.17,-398.93"/>
<text text-anchor="middle" x="2972.98" y="-397.88" font-family="Times New Roman,serif" font-size="14.00">35 ProcessStart</text>
</g>
<!-- 37&#45;&gt;33 -->
<g id="edge38" class="edge">
<title>37&#45;&gt;33</title>
<path fill="none" stroke="Green" d="M1900.94,-425.69C1999.5,-423.5 2293.31,-416.98 2463.21,-413.2"/>
<polygon fill="Green" stroke="Green" points="2463.04,-416.71 2472.96,-412.99 2462.88,-409.71 2463.04,-416.71"/>
<text text-anchor="middle" x="2295.53" y="-422.88" font-family="Times New Roman,serif" font-size="14.00">37 FileIOWrite</text>
</g>
<!-- 39&#45;&gt;41 -->
<g id="edge42" class="edge">
<title>39&#45;&gt;41</title>
<path fill="none" stroke="Green" d="M2634.45,-204.38C2686.72,-224.46 2773.24,-257.7 2825.27,-277.68"/>
<polygon fill="Green" stroke="Green" points="2823.83,-280.88 2834.42,-281.2 2826.34,-274.34 2823.83,-280.88"/>
<text text-anchor="middle" x="2770.11" y="-273.88" font-family="Times New Roman,serif" font-size="14.00">41 FileIORead</text>
</g>
<!-- 43 -->
<g id="node34" class="node">
<title>43</title>
<polygon fill="none" stroke="black" points="3127.73,-287.8 3038.98,-287.8 3038.98,-199.05 3127.73,-199.05 3127.73,-287.8"/>
<text text-anchor="middle" x="3083.36" y="-238" font-family="Times New Roman,serif" font-size="14.00">2196PAExec</text>
</g>
<!-- 39&#45;&gt;43 -->
<g id="edge44" class="edge">
<title>39&#45;&gt;43</title>
<path fill="none" stroke="Green" d="M2684.6,-198.16C2786.17,-209.72 2944.35,-227.72 3027.32,-237.16"/>
<polygon fill="Green" stroke="Green" points="3026.92,-240.64 3037.25,-238.29 3027.71,-233.68 3026.92,-240.64"/>
<text text-anchor="middle" x="2869.86" y="-226.88" font-family="Times New Roman,serif" font-size="14.00">43 FileIORead</text>
</g>
<!-- 39&#45;&gt;50 -->
<g id="edge51" class="edge">
<title>39&#45;&gt;50</title>
<path fill="none" stroke="Green" d="M2642.69,-171.07C2668.68,-163.01 2700.57,-153.22 2729.23,-144.68 2761.1,-135.18 2797.18,-124.79 2824.67,-116.94"/>
<polygon fill="Green" stroke="Green" points="2825.4,-120.38 2834.06,-114.27 2823.49,-113.64 2825.4,-120.38"/>
<text text-anchor="middle" x="2770.11" y="-147.88" font-family="Times New Roman,serif" font-size="14.00">50 FileIORead</text>
</g>
<!-- 52 -->
<g id="node40" class="node">
<title>52</title>
<polygon fill="none" stroke="black" points="3127.73,-176.8 3038.98,-176.8 3038.98,-88.05 3127.73,-88.05 3127.73,-176.8"/>
<text text-anchor="middle" x="3083.36" y="-127" font-family="Times New Roman,serif" font-size="14.00">4224PAExec</text>
</g>
<!-- 39&#45;&gt;52 -->
<g id="edge53" class="edge">
<title>39&#45;&gt;52</title>
<path fill="none" stroke="Green" d="M2692.75,-178.74C2779.37,-170.95 2906.67,-158.44 3017.23,-143.43 3020.59,-142.97 3024.04,-142.47 3027.51,-141.95"/>
<polygon fill="Green" stroke="Green" points="3027.79,-145.45 3037.13,-140.44 3026.71,-138.53 3027.79,-145.45"/>
<text text-anchor="middle" x="2869.86" y="-167.88" font-family="Times New Roman,serif" font-size="14.00">52 FileIORead</text>
</g>
<!-- 41&#45;&gt;43 -->
<g id="edge43" class="edge">
<title>41&#45;&gt;43</title>
<path fill="none" stroke="Green" d="M2903.9,-286.46C2936.96,-278.48 2988.4,-266.08 3027.58,-256.63"/>
<polygon fill="Green" stroke="Green" points="3028.16,-260.09 3037.06,-254.35 3026.52,-253.29 3028.16,-260.09"/>
<text text-anchor="middle" x="2972.98" y="-281.88" font-family="Times New Roman,serif" font-size="14.00">42 ProcessStart</text>
</g>
<!-- 45 -->
<g id="node35" class="node">
<title>45</title>
<ellipse fill="none" stroke="black" cx="3471.95" cy="-243.43" rx="216.73" ry="18"/>
<text text-anchor="middle" x="3471.95" y="-238" font-family="Times New Roman,serif" font-size="14.00">//192.168.0.95/ADMIN$/PAExec&#45;2196&#45;WIN2012&#45;1.exe</text>
</g>
<!-- 43&#45;&gt;45 -->
<g id="edge45" class="edge">
<title>43&#45;&gt;45</title>
<path fill="none" stroke="Green" d="M3127.95,-243.43C3157.62,-243.43 3199.42,-243.43 3243.68,-243.43"/>
<polygon fill="Green" stroke="Green" points="3243.46,-246.93 3253.46,-243.43 3243.46,-239.93 3243.46,-246.93"/>
<text text-anchor="middle" x="3191.11" y="-245.88" font-family="Times New Roman,serif" font-size="14.00">44 FileIOWrite</text>
</g>
<!-- 46 -->
<g id="node36" class="node">
<title>46</title>
<polygon fill="none" stroke="black" points="4001.67,-338.8 3810.92,-338.8 3810.92,-148.05 4001.67,-148.05 4001.67,-338.8"/>
<text text-anchor="middle" x="3906.3" y="-238" font-family="Times New Roman,serif" font-size="14.00">2788PAExec&#45;2196&#45;WIN2012&#45;1</text>
</g>
<!-- 45&#45;&gt;46 -->
<g id="edge46" class="edge">
<title>45&#45;&gt;46</title>
<path fill="none" stroke="Green" d="M3689.12,-243.43C3727.53,-243.43 3765.94,-243.43 3799.5,-243.43"/>
<polygon fill="Green" stroke="Green" points="3799.17,-246.93 3809.17,-243.43 3799.17,-239.93 3799.17,-246.93"/>
<text text-anchor="middle" x="3752.05" y="-245.88" font-family="Times New Roman,serif" font-size="14.00">45 FileIORead</text>
</g>
<!-- 47 -->
<g id="node37" class="node">
<title>47</title>
<polygon fill="none" stroke="black" points="4214.92,-287.8 4126.17,-287.8 4126.17,-199.05 4214.92,-199.05 4214.92,-287.8"/>
<text text-anchor="middle" x="4170.55" y="-238" font-family="Times New Roman,serif" font-size="14.00">4680ipconfig</text>
</g>
<!-- 46&#45;&gt;47 -->
<g id="edge47" class="edge">
<title>46&#45;&gt;47</title>
<path fill="none" stroke="Green" d="M4001.98,-243.43C4039.91,-243.43 4082.25,-243.43 4114.89,-243.43"/>
<polygon fill="Green" stroke="Green" points="4114.49,-246.93 4124.49,-243.43 4114.49,-239.93 4114.49,-246.93"/>
<text text-anchor="middle" x="4063.92" y="-245.88" font-family="Times New Roman,serif" font-size="14.00">46 ProcessStart</text>
</g>
<!-- 48&#45;&gt;39 -->
<g id="edge49" class="edge">
<title>48&#45;&gt;39</title>
<path fill="none" stroke="Green" d="M1900.77,-128.91C1989.65,-135.62 2240.73,-154.88 2449.39,-173.68 2459.03,-174.54 2469.05,-175.48 2479.09,-176.43"/>
<polygon fill="Green" stroke="Green" points="2478.63,-179.9 2488.92,-177.37 2479.3,-172.94 2478.63,-179.9"/>
<text text-anchor="middle" x="2295.53" y="-176.88" font-family="Times New Roman,serif" font-size="14.00">48 FileIOWrite</text>
</g>
<!-- 50&#45;&gt;52 -->
<g id="edge52" class="edge">
<title>50&#45;&gt;52</title>
<path fill="none" stroke="Green" d="M2903.9,-108.8C2936.89,-113.17 2988.18,-119.96 3027.33,-125.14"/>
<polygon fill="Green" stroke="Green" points="3026.66,-128.58 3037.03,-126.43 3027.58,-121.64 3026.66,-128.58"/>
<text text-anchor="middle" x="2972.98" y="-125.88" font-family="Times New Roman,serif" font-size="14.00">51 ProcessStart</text>
</g>
<!-- 54 -->
<g id="node41" class="node">
<title>54</title>
<ellipse fill="none" stroke="black" cx="3471.95" cy="-132.43" rx="221.22" ry="18"/>
<text text-anchor="middle" x="3471.95" y="-127" font-family="Times New Roman,serif" font-size="14.00">//192.168.0.244/ADMIN$/PAExec&#45;4224&#45;WIN2012&#45;1.exe</text>
</g>
<!-- 52&#45;&gt;54 -->
<g id="edge54" class="edge">
<title>52&#45;&gt;54</title>
<path fill="none" stroke="Green" d="M3127.95,-132.43C3156.59,-132.43 3196.53,-132.43 3239.07,-132.43"/>
<polygon fill="Green" stroke="Green" points="3239.02,-135.93 3249.02,-132.43 3239.01,-128.93 3239.02,-135.93"/>
<text text-anchor="middle" x="3191.11" y="-134.88" font-family="Times New Roman,serif" font-size="14.00">53 FileIOWrite</text>
</g>
<!-- 55&#45;&gt;39 -->
<g id="edge56" class="edge">
<title>55&#45;&gt;39</title>
<path fill="none" stroke="Green" d="M1900.94,-211.27C1999.56,-207.85 2293.72,-197.65 2463.56,-191.75"/>
<polygon fill="Green" stroke="Green" points="2463.43,-195.26 2473.3,-191.42 2463.19,-188.26 2463.43,-195.26"/>
<text text-anchor="middle" x="2295.53" y="-205.88" font-family="Times New Roman,serif" font-size="14.00">55 FileIOWrite</text>
</g>
</g>
</svg>
